<svg id="visual" viewBox="0 0 900 600" width="900" height="600" xmlns="http://www.w3.org/2000/svg" xmlns:xlink="http://www.w3.org/1999/xlink" version="1.1"><g stroke-width="1" stroke-linejoin="bevel"><path d="M464 305L434 290L421 323Z" fill="#ffffff" stroke="#ffffff"></path><path d="M464 305L430 266L434 290Z" fill="#846cf4" stroke="#846cf4"></path><path d="M434 290L390 309L421 323Z" fill="#cebcfb" stroke="#cebcfb"></path><path d="M430 266L390 309L434 290Z" fill="#dbcdfc" stroke="#dbcdfc"></path><path d="M391 380L444 369L421 323Z" fill="#b39cf9" stroke="#b39cf9"></path><path d="M421 323L444 369L464 305Z" fill="#c1acfa" stroke="#c1acfa"></path><path d="M464 305L434 255L430 266Z" fill="#cebcfb" stroke="#cebcfb"></path><path d="M430 266L364 223L390 309Z" fill="#cebcfb" stroke="#cebcfb"></path><path d="M390 309L376 337L421 323Z" fill="#c1acfa" stroke="#c1acfa"></path><path d="M525 309L509 285L464 305Z" fill="#715df2" stroke="#715df2"></path><path d="M464 305L480 237L434 255Z" fill="#f3eefe" stroke="#f3eefe"></path><path d="M517 389L525 309L464 305Z" fill="#a48cf7" stroke="#a48cf7"></path><path d="M489 209L480 237L509 285Z" fill="#c1acfa" stroke="#c1acfa"></path><path d="M509 285L480 237L464 305Z" fill="#957cf6" stroke="#957cf6"></path><path d="M376 337L391 380L421 323Z" fill="#715df2" stroke="#715df2"></path><path d="M480 237L417 214L434 255Z" fill="#f3eefe" stroke="#f3eefe"></path><path d="M434 255L364 223L430 266Z" fill="#b39cf9" stroke="#b39cf9"></path><path d="M261 313L293 363L376 337Z" fill="#f3eefe" stroke="#f3eefe"></path><path d="M376 337L363 383L391 380Z" fill="#ffffff" stroke="#ffffff"></path><path d="M466 442L517 389L444 369Z" fill="#e7ddfd" stroke="#e7ddfd"></path><path d="M444 369L517 389L464 305Z" fill="#957cf6" stroke="#957cf6"></path><path d="M448 443L444 369L391 380Z" fill="#dbcdfc" stroke="#dbcdfc"></path><path d="M546 176L489 209L595 224Z" fill="#b39cf9" stroke="#b39cf9"></path><path d="M480 237L433 193L417 214Z" fill="#dbcdfc" stroke="#dbcdfc"></path><path d="M517 389L555 340L525 309Z" fill="#715df2" stroke="#715df2"></path><path d="M595 224L489 209L509 285Z" fill="#957cf6" stroke="#957cf6"></path><path d="M417 214L364 223L434 255Z" fill="#cebcfb" stroke="#cebcfb"></path><path d="M376 337L328 378L363 383Z" fill="#846cf4" stroke="#846cf4"></path><path d="M489 209L433 193L480 237Z" fill="#e7ddfd" stroke="#e7ddfd"></path><path d="M417 214L433 193L364 223Z" fill="#e7ddfd" stroke="#e7ddfd"></path><path d="M401 459L448 443L391 380Z" fill="#e7ddfd" stroke="#e7ddfd"></path><path d="M293 363L328 378L376 337Z" fill="#957cf6" stroke="#957cf6"></path><path d="M363 383L401 459L391 380Z" fill="#957cf6" stroke="#957cf6"></path><path d="M448 443L466 442L444 369Z" fill="#715df2" stroke="#715df2"></path><path d="M313 437L401 459L363 383Z" fill="#ffffff" stroke="#ffffff"></path><path d="M448 443L410 551L466 442Z" fill="#ffffff" stroke="#ffffff"></path><path d="M261 313L376 337L390 309Z" fill="#cebcfb" stroke="#cebcfb"></path><path d="M328 378L313 437L363 383Z" fill="#dbcdfc" stroke="#dbcdfc"></path><path d="M466 442L576 407L517 389Z" fill="#dbcdfc" stroke="#dbcdfc"></path><path d="M517 389L576 407L555 340Z" fill="#f3eefe" stroke="#f3eefe"></path><path d="M509 285L525 309L613 254Z" fill="#846cf4" stroke="#846cf4"></path><path d="M595 224L509 285L613 254Z" fill="#715df2" stroke="#715df2"></path><path d="M489 209L518 140L433 193Z" fill="#e7ddfd" stroke="#e7ddfd"></path><path d="M546 176L536 168L489 209Z" fill="#715df2" stroke="#715df2"></path><path d="M613 254L525 309L555 340Z" fill="#dbcdfc" stroke="#dbcdfc"></path><path d="M293 363L313 437L328 378Z" fill="#e7ddfd" stroke="#e7ddfd"></path><path d="M259 281L261 313L390 309Z" fill="#c1acfa" stroke="#c1acfa"></path><path d="M254 391L306 453L313 437Z" fill="#a48cf7" stroke="#a48cf7"></path><path d="M643 303L613 254L555 340Z" fill="#e7ddfd" stroke="#e7ddfd"></path><path d="M364 223L259 281L390 309Z" fill="#b39cf9" stroke="#b39cf9"></path><path d="M613 254L614 238L595 224Z" fill="#e7ddfd" stroke="#e7ddfd"></path><path d="M648 128L596 106L546 176Z" fill="#a48cf7" stroke="#a48cf7"></path><path d="M596 106L518 140L536 168Z" fill="#dbcdfc" stroke="#dbcdfc"></path><path d="M536 168L518 140L489 209Z" fill="#c1acfa" stroke="#c1acfa"></path><path d="M433 193L346 120L364 223Z" fill="#c1acfa" stroke="#c1acfa"></path><path d="M495 85L518 140L591 93Z" fill="#846cf4" stroke="#846cf4"></path><path d="M254 391L313 437L293 363Z" fill="#a48cf7" stroke="#a48cf7"></path><path d="M313 437L330 475L401 459Z" fill="#e7ddfd" stroke="#e7ddfd"></path><path d="M538 534L598 432L576 407Z" fill="#b39cf9" stroke="#b39cf9"></path><path d="M625 401L643 303L555 340Z" fill="#846cf4" stroke="#846cf4"></path><path d="M538 534L576 407L466 442Z" fill="#957cf6" stroke="#957cf6"></path><path d="M306 453L330 475L313 437Z" fill="#dbcdfc" stroke="#dbcdfc"></path><path d="M401 459L410 551L448 443Z" fill="#ffffff" stroke="#ffffff"></path><path d="M625 401L555 340L576 407Z" fill="#957cf6" stroke="#957cf6"></path><path d="M613 254L652 249L614 238Z" fill="#f3eefe" stroke="#f3eefe"></path><path d="M225 371L254 391L293 363Z" fill="#cebcfb" stroke="#cebcfb"></path><path d="M225 371L293 363L261 313Z" fill="#ffffff" stroke="#ffffff"></path><path d="M598 432L625 401L576 407Z" fill="#cebcfb" stroke="#cebcfb"></path><path d="M350 91L346 120L433 193Z" fill="#ffffff" stroke="#ffffff"></path><path d="M364 223L267 170L259 281Z" fill="#cebcfb" stroke="#cebcfb"></path><path d="M643 303L652 249L613 254Z" fill="#b39cf9" stroke="#b39cf9"></path><path d="M614 238L671 197L595 224Z" fill="#a48cf7" stroke="#a48cf7"></path><path d="M209 371L225 371L198 320Z" fill="#cebcfb" stroke="#cebcfb"></path><path d="M254 391L253 486L306 453Z" fill="#ffffff" stroke="#ffffff"></path><path d="M271 163L267 170L364 223Z" fill="#e7ddfd" stroke="#e7ddfd"></path><path d="M198 320L225 371L261 313Z" fill="#e7ddfd" stroke="#e7ddfd"></path><path d="M346 120L271 163L364 223Z" fill="#a48cf7" stroke="#a48cf7"></path><path d="M657 410L666 369L625 401Z" fill="#ffffff" stroke="#ffffff"></path><path d="M625 401L666 369L643 303Z" fill="#846cf4" stroke="#846cf4"></path><path d="M673 246L668 239L652 249Z" fill="#a48cf7" stroke="#a48cf7"></path><path d="M596 106L536 168L546 176Z" fill="#dbcdfc" stroke="#dbcdfc"></path><path d="M518 140L495 85L433 193Z" fill="#c1acfa" stroke="#c1acfa"></path><path d="M635 458L657 410L625 401Z" fill="#715df2" stroke="#715df2"></path><path d="M673 246L652 249L643 303Z" fill="#cebcfb" stroke="#cebcfb"></path><path d="M652 249L671 197L614 238Z" fill="#cebcfb" stroke="#cebcfb"></path><path d="M495 85L350 91L433 193Z" fill="#957cf6" stroke="#957cf6"></path><path d="M346 120L287 129L271 163Z" fill="#cebcfb" stroke="#cebcfb"></path><path d="M350 91L287 129L346 120Z" fill="#b39cf9" stroke="#b39cf9"></path><path d="M199 146L191 180L267 170Z" fill="#c1acfa" stroke="#c1acfa"></path><path d="M198 320L261 313L259 281Z" fill="#cebcfb" stroke="#cebcfb"></path><path d="M225 371L209 371L254 391Z" fill="#f3eefe" stroke="#f3eefe"></path><path d="M306 453L253 486L330 475Z" fill="#715df2" stroke="#715df2"></path><path d="M712 315L673 246L643 303Z" fill="#e7ddfd" stroke="#e7ddfd"></path><path d="M377 600L410 551L363 600Z" fill="#c1acfa" stroke="#c1acfa"></path><path d="M330 475L410 551L401 459Z" fill="#b39cf9" stroke="#b39cf9"></path><path d="M598 432L635 458L625 401Z" fill="#846cf4" stroke="#846cf4"></path><path d="M519 545L538 534L466 442Z" fill="#715df2" stroke="#715df2"></path><path d="M538 534L635 458L598 432Z" fill="#ffffff" stroke="#ffffff"></path><path d="M188 307L198 320L259 281Z" fill="#c1acfa" stroke="#c1acfa"></path><path d="M410 551L519 545L466 442Z" fill="#e7ddfd" stroke="#e7ddfd"></path><path d="M519 545L545 541L538 534Z" fill="#cebcfb" stroke="#cebcfb"></path><path d="M538 534L545 541L635 458Z" fill="#b39cf9" stroke="#b39cf9"></path><path d="M191 180L259 281L267 170Z" fill="#957cf6" stroke="#957cf6"></path><path d="M191 180L188 307L259 281Z" fill="#dbcdfc" stroke="#dbcdfc"></path><path d="M198 320L164 370L209 371Z" fill="#715df2" stroke="#715df2"></path><path d="M715 224L671 197L668 239Z" fill="#715df2" stroke="#715df2"></path><path d="M668 239L671 197L652 249Z" fill="#f3eefe" stroke="#f3eefe"></path><path d="M181 463L253 486L254 391Z" fill="#b39cf9" stroke="#b39cf9"></path><path d="M648 128L546 176L595 224Z" fill="#e7ddfd" stroke="#e7ddfd"></path><path d="M655 57L591 93L596 106Z" fill="#cebcfb" stroke="#cebcfb"></path><path d="M596 106L591 93L518 140Z" fill="#a48cf7" stroke="#a48cf7"></path><path d="M708 406L712 315L666 369Z" fill="#f3eefe" stroke="#f3eefe"></path><path d="M666 369L712 315L643 303Z" fill="#a48cf7" stroke="#a48cf7"></path><path d="M673 246L715 224L668 239Z" fill="#a48cf7" stroke="#a48cf7"></path><path d="M708 406L666 369L657 410Z" fill="#e7ddfd" stroke="#e7ddfd"></path><path d="M718 71L648 128L671 197Z" fill="#dbcdfc" stroke="#dbcdfc"></path><path d="M671 197L648 128L595 224Z" fill="#957cf6" stroke="#957cf6"></path><path d="M426 600L487 587L410 551Z" fill="#c1acfa" stroke="#c1acfa"></path><path d="M410 551L487 587L519 545Z" fill="#a48cf7" stroke="#a48cf7"></path><path d="M519 545L536 600L545 541Z" fill="#f3eefe" stroke="#f3eefe"></path><path d="M722 428L708 406L657 410Z" fill="#a48cf7" stroke="#a48cf7"></path><path d="M722 428L657 410L699 479Z" fill="#957cf6" stroke="#957cf6"></path><path d="M177 184L191 180L199 146Z" fill="#a48cf7" stroke="#a48cf7"></path><path d="M199 146L267 170L271 163Z" fill="#dbcdfc" stroke="#dbcdfc"></path><path d="M188 307L164 370L198 320Z" fill="#ffffff" stroke="#ffffff"></path><path d="M209 371L181 463L254 391Z" fill="#ffffff" stroke="#ffffff"></path><path d="M117 380L164 370L109 353Z" fill="#c1acfa" stroke="#c1acfa"></path><path d="M712 315L715 224L673 246Z" fill="#f3eefe" stroke="#f3eefe"></path><path d="M377 600L426 600L410 551Z" fill="#b39cf9" stroke="#b39cf9"></path><path d="M487 587L536 600L519 545Z" fill="#cebcfb" stroke="#cebcfb"></path><path d="M682 572L699 479L635 458Z" fill="#846cf4" stroke="#846cf4"></path><path d="M426 600L493 600L487 587Z" fill="#b39cf9" stroke="#b39cf9"></path><path d="M199 146L271 163L287 129Z" fill="#e7ddfd" stroke="#e7ddfd"></path><path d="M191 180L177 184L188 307Z" fill="#b39cf9" stroke="#b39cf9"></path><path d="M193 138L199 146L214 79Z" fill="#957cf6" stroke="#957cf6"></path><path d="M363 600L410 551L330 475Z" fill="#dbcdfc" stroke="#dbcdfc"></path><path d="M253 486L363 600L330 475Z" fill="#b39cf9" stroke="#b39cf9"></path><path d="M164 370L181 463L209 371Z" fill="#ffffff" stroke="#ffffff"></path><path d="M253 486L217 549L363 600Z" fill="#715df2" stroke="#715df2"></path><path d="M493 600L536 600L487 587Z" fill="#dbcdfc" stroke="#dbcdfc"></path><path d="M699 479L657 410L635 458Z" fill="#ffffff" stroke="#ffffff"></path><path d="M785 446L784 279L712 315Z" fill="#dbcdfc" stroke="#dbcdfc"></path><path d="M712 315L773 244L715 224Z" fill="#b39cf9" stroke="#b39cf9"></path><path d="M214 79L199 146L287 129Z" fill="#b39cf9" stroke="#b39cf9"></path><path d="M199 146L193 138L177 184Z" fill="#715df2" stroke="#715df2"></path><path d="M636 600L635 458L545 541Z" fill="#715df2" stroke="#715df2"></path><path d="M486 -3L425 0L495 85Z" fill="#dbcdfc" stroke="#dbcdfc"></path><path d="M495 85L425 0L350 91Z" fill="#a48cf7" stroke="#a48cf7"></path><path d="M310 0L214 79L287 129Z" fill="#e7ddfd" stroke="#e7ddfd"></path><path d="M181 463L212 532L253 486Z" fill="#c1acfa" stroke="#c1acfa"></path><path d="M532 0L486 -3L495 85Z" fill="#b39cf9" stroke="#b39cf9"></path><path d="M532 0L495 85L591 93Z" fill="#dbcdfc" stroke="#dbcdfc"></path><path d="M584 0L532 0L591 93Z" fill="#b39cf9" stroke="#b39cf9"></path><path d="M310 0L287 129L350 91Z" fill="#a48cf7" stroke="#a48cf7"></path><path d="M486 -3L348 0L425 0Z" fill="#846cf4" stroke="#846cf4"></path><path d="M425 0L348 0L350 91Z" fill="#715df2" stroke="#715df2"></path><path d="M177 523L217 549L212 532Z" fill="#957cf6" stroke="#957cf6"></path><path d="M212 532L217 549L253 486Z" fill="#a48cf7" stroke="#a48cf7"></path><path d="M214 79L190 103L193 138Z" fill="#a48cf7" stroke="#a48cf7"></path><path d="M193 138L134 184L177 184Z" fill="#e7ddfd" stroke="#e7ddfd"></path><path d="M109 353L164 370L188 307Z" fill="#846cf4" stroke="#846cf4"></path><path d="M164 370L128 452L181 463Z" fill="#dbcdfc" stroke="#dbcdfc"></path><path d="M181 463L177 523L212 532Z" fill="#c1acfa" stroke="#c1acfa"></path><path d="M134 184L188 307L177 184Z" fill="#715df2" stroke="#715df2"></path><path d="M718 71L655 57L648 128Z" fill="#b39cf9" stroke="#b39cf9"></path><path d="M648 128L655 57L596 106Z" fill="#cebcfb" stroke="#cebcfb"></path><path d="M125 70L134 184L193 138Z" fill="#ffffff" stroke="#ffffff"></path><path d="M56 303L109 353L188 307Z" fill="#cebcfb" stroke="#cebcfb"></path><path d="M784 279L773 244L712 315Z" fill="#715df2" stroke="#715df2"></path><path d="M789 175L718 71L671 197Z" fill="#a48cf7" stroke="#a48cf7"></path><path d="M128 452L177 523L181 463Z" fill="#dbcdfc" stroke="#dbcdfc"></path><path d="M247 -2L310 0L348 0Z" fill="#cebcfb" stroke="#cebcfb"></path><path d="M348 0L310 0L350 91Z" fill="#e7ddfd" stroke="#e7ddfd"></path><path d="M598 0L584 0L591 93Z" fill="#b39cf9" stroke="#b39cf9"></path><path d="M532 0L584 0L486 -3Z" fill="#b39cf9" stroke="#b39cf9"></path><path d="M126 450L128 452L164 370Z" fill="#c1acfa" stroke="#c1acfa"></path><path d="M126 450L164 370L117 380Z" fill="#715df2" stroke="#715df2"></path><path d="M785 446L712 315L708 406Z" fill="#e7ddfd" stroke="#e7ddfd"></path><path d="M0 398L126 450L117 380Z" fill="#a48cf7" stroke="#a48cf7"></path><path d="M128 452L133 548L177 523Z" fill="#f3eefe" stroke="#f3eefe"></path><path d="M536 600L636 600L545 541Z" fill="#a48cf7" stroke="#a48cf7"></path><path d="M609 0L598 0L591 93Z" fill="#a48cf7" stroke="#a48cf7"></path><path d="M584 0L598 0L486 -3Z" fill="#c1acfa" stroke="#c1acfa"></path><path d="M699 479L785 446L722 428Z" fill="#dbcdfc" stroke="#dbcdfc"></path><path d="M722 428L785 446L708 406Z" fill="#846cf4" stroke="#846cf4"></path><path d="M636 600L682 572L635 458Z" fill="#a48cf7" stroke="#a48cf7"></path><path d="M655 57L609 0L591 93Z" fill="#957cf6" stroke="#957cf6"></path><path d="M598 0L609 0L486 -3Z" fill="#715df2" stroke="#715df2"></path><path d="M655 57L634 0L609 0Z" fill="#a48cf7" stroke="#a48cf7"></path><path d="M609 0L861 -10L486 -3Z" fill="#b39cf9" stroke="#b39cf9"></path><path d="M684 0L634 0L655 57Z" fill="#a48cf7" stroke="#a48cf7"></path><path d="M789 175L671 197L715 224Z" fill="#e7ddfd" stroke="#e7ddfd"></path><path d="M813 483L785 446L699 479Z" fill="#c1acfa" stroke="#c1acfa"></path><path d="M194 -5L247 -2L348 0Z" fill="#ffffff" stroke="#ffffff"></path><path d="M310 0L247 -2L214 79Z" fill="#e7ddfd" stroke="#e7ddfd"></path><path d="M214 79L125 70L190 103Z" fill="#957cf6" stroke="#957cf6"></path><path d="M190 103L125 70L193 138Z" fill="#846cf4" stroke="#846cf4"></path><path d="M203 600L217 549L159 600Z" fill="#c1acfa" stroke="#c1acfa"></path><path d="M203 600L208 600L217 549Z" fill="#957cf6" stroke="#957cf6"></path><path d="M217 549L208 600L363 600Z" fill="#dbcdfc" stroke="#dbcdfc"></path><path d="M833 220L789 175L773 244Z" fill="#846cf4" stroke="#846cf4"></path><path d="M773 244L789 175L715 224Z" fill="#f3eefe" stroke="#f3eefe"></path><path d="M833 220L773 244L784 279Z" fill="#a48cf7" stroke="#a48cf7"></path><path d="M159 600L217 549L177 523Z" fill="#c1acfa" stroke="#c1acfa"></path><path d="M194 -5L238 -2L247 -2Z" fill="#c1acfa" stroke="#c1acfa"></path><path d="M247 -2L238 -2L214 79Z" fill="#cebcfb" stroke="#cebcfb"></path><path d="M39 268L56 303L134 184Z" fill="#a48cf7" stroke="#a48cf7"></path><path d="M134 184L56 303L188 307Z" fill="#cebcfb" stroke="#cebcfb"></path><path d="M109 353L32 352L117 380Z" fill="#f3eefe" stroke="#f3eefe"></path><path d="M111 600L133 548L17 553Z" fill="#f3eefe" stroke="#f3eefe"></path><path d="M126 450L133 548L128 452Z" fill="#cebcfb" stroke="#cebcfb"></path><path d="M636 600L705 600L682 572Z" fill="#f3eefe" stroke="#f3eefe"></path><path d="M682 572L714 594L699 479Z" fill="#846cf4" stroke="#846cf4"></path><path d="M705 600L714 594L682 572Z" fill="#f3eefe" stroke="#f3eefe"></path><path d="M755 0L684 0L718 71Z" fill="#ffffff" stroke="#ffffff"></path><path d="M718 71L684 0L655 57Z" fill="#957cf6" stroke="#957cf6"></path><path d="M634 0L861 -10L609 0Z" fill="#f3eefe" stroke="#f3eefe"></path><path d="M173 0L125 70L214 79Z" fill="#e7ddfd" stroke="#e7ddfd"></path><path d="M900 297L833 220L784 279Z" fill="#a48cf7" stroke="#a48cf7"></path><path d="M790 73L763 60L718 71Z" fill="#a48cf7" stroke="#a48cf7"></path><path d="M238 -2L194 -5L214 79Z" fill="#e7ddfd" stroke="#e7ddfd"></path><path d="M486 -3L194 -5L348 0Z" fill="#cebcfb" stroke="#cebcfb"></path><path d="M153 596L159 600L177 523Z" fill="#846cf4" stroke="#846cf4"></path><path d="M133 548L153 596L177 523Z" fill="#dbcdfc" stroke="#dbcdfc"></path><path d="M0 198L39 268L134 184Z" fill="#e7ddfd" stroke="#e7ddfd"></path><path d="M56 303L32 352L109 353Z" fill="#f3eefe" stroke="#f3eefe"></path><path d="M636 600L719 609L705 600Z" fill="#a48cf7" stroke="#a48cf7"></path><path d="M705 600L719 609L714 594Z" fill="#957cf6" stroke="#957cf6"></path><path d="M825 509L813 483L699 479Z" fill="#a48cf7" stroke="#a48cf7"></path><path d="M536 600L719 609L636 600Z" fill="#e7ddfd" stroke="#e7ddfd"></path><path d="M493 600L719 609L536 600Z" fill="#f3eefe" stroke="#f3eefe"></path><path d="M426 600L719 609L493 600Z" fill="#e7ddfd" stroke="#e7ddfd"></path><path d="M377 600L719 609L426 600Z" fill="#f3eefe" stroke="#f3eefe"></path><path d="M363 600L719 609L377 600Z" fill="#a48cf7" stroke="#a48cf7"></path><path d="M208 600L719 609L363 600Z" fill="#b39cf9" stroke="#b39cf9"></path><path d="M203 600L719 609L208 600Z" fill="#c1acfa" stroke="#c1acfa"></path><path d="M159 600L719 609L203 600Z" fill="#cebcfb" stroke="#cebcfb"></path><path d="M790 73L718 71L789 175Z" fill="#846cf4" stroke="#846cf4"></path><path d="M761 600L699 479L714 594Z" fill="#e7ddfd" stroke="#e7ddfd"></path><path d="M900 332L900 297L784 279Z" fill="#f3eefe" stroke="#f3eefe"></path><path d="M0 265L32 352L56 303Z" fill="#715df2" stroke="#715df2"></path><path d="M133 548L111 600L153 596Z" fill="#dbcdfc" stroke="#dbcdfc"></path><path d="M194 -5L173 0L214 79Z" fill="#715df2" stroke="#715df2"></path><path d="M825 509L819 481L813 483Z" fill="#846cf4" stroke="#846cf4"></path><path d="M813 483L819 481L785 446Z" fill="#957cf6" stroke="#957cf6"></path><path d="M847 203L837 191L833 220Z" fill="#f3eefe" stroke="#f3eefe"></path><path d="M833 220L837 191L789 175Z" fill="#846cf4" stroke="#846cf4"></path><path d="M900 218L847 203L833 220Z" fill="#cebcfb" stroke="#cebcfb"></path><path d="M837 191L790 73L789 175Z" fill="#c1acfa" stroke="#c1acfa"></path><path d="M796 19L876 0L861 -10Z" fill="#dbcdfc" stroke="#dbcdfc"></path><path d="M763 60L755 0L718 71Z" fill="#957cf6" stroke="#957cf6"></path><path d="M90 55L54 136L125 70Z" fill="#ffffff" stroke="#ffffff"></path><path d="M125 70L54 136L134 184Z" fill="#dbcdfc" stroke="#dbcdfc"></path><path d="M719 609L761 600L714 594Z" fill="#a48cf7" stroke="#a48cf7"></path><path d="M761 600L825 509L699 479Z" fill="#f3eefe" stroke="#f3eefe"></path><path d="M900 332L784 279L785 446Z" fill="#ffffff" stroke="#ffffff"></path><path d="M110 18L90 55L125 70Z" fill="#957cf6" stroke="#957cf6"></path><path d="M153 596L111 600L159 600Z" fill="#c1acfa" stroke="#c1acfa"></path><path d="M159 600L111 600L719 609Z" fill="#a48cf7" stroke="#a48cf7"></path><path d="M0 490L133 548L126 450Z" fill="#f3eefe" stroke="#f3eefe"></path><path d="M719 609L773 600L761 600Z" fill="#846cf4" stroke="#846cf4"></path><path d="M761 600L773 600L825 509Z" fill="#cebcfb" stroke="#cebcfb"></path><path d="M194 -5L133 0L173 0Z" fill="#dbcdfc" stroke="#dbcdfc"></path><path d="M173 0L133 0L125 70Z" fill="#c1acfa" stroke="#c1acfa"></path><path d="M796 19L755 0L763 60Z" fill="#957cf6" stroke="#957cf6"></path><path d="M684 0L861 -10L634 0Z" fill="#957cf6" stroke="#957cf6"></path><path d="M133 0L110 18L125 70Z" fill="#a48cf7" stroke="#a48cf7"></path><path d="M0 198L0 265L39 268Z" fill="#a48cf7" stroke="#a48cf7"></path><path d="M39 268L0 265L56 303Z" fill="#846cf4" stroke="#846cf4"></path><path d="M32 352L0 398L117 380Z" fill="#f3eefe" stroke="#f3eefe"></path><path d="M0 265L0 369L32 352Z" fill="#715df2" stroke="#715df2"></path><path d="M0 369L0 371L32 352Z" fill="#ffffff" stroke="#ffffff"></path><path d="M0 371L0 398L32 352Z" fill="#846cf4" stroke="#846cf4"></path><path d="M54 136L0 198L134 184Z" fill="#b39cf9" stroke="#b39cf9"></path><path d="M0 53L0 198L54 136Z" fill="#715df2" stroke="#715df2"></path><path d="M0 53L54 136L90 55Z" fill="#c1acfa" stroke="#c1acfa"></path><path d="M900 332L785 446L900 434Z" fill="#a48cf7" stroke="#a48cf7"></path><path d="M900 113L790 73L837 191Z" fill="#f3eefe" stroke="#f3eefe"></path><path d="M790 73L796 19L763 60Z" fill="#f3eefe" stroke="#f3eefe"></path><path d="M900 434L785 446L819 481Z" fill="#cebcfb" stroke="#cebcfb"></path><path d="M900 113L837 191L913 137Z" fill="#cebcfb" stroke="#cebcfb"></path><path d="M900 297L900 255L833 220Z" fill="#846cf4" stroke="#846cf4"></path><path d="M0 369L-12 417L0 371Z" fill="#a48cf7" stroke="#a48cf7"></path><path d="M0 371L-12 417L0 398Z" fill="#cebcfb" stroke="#cebcfb"></path><path d="M0 398L0 490L126 450Z" fill="#846cf4" stroke="#846cf4"></path><path d="M0 265L-12 417L0 369Z" fill="#715df2" stroke="#715df2"></path><path d="M0 198L-12 417L0 265Z" fill="#cebcfb" stroke="#cebcfb"></path><path d="M900 255L900 218L833 220Z" fill="#715df2" stroke="#715df2"></path><path d="M900 297L910 290L900 255Z" fill="#957cf6" stroke="#957cf6"></path><path d="M900 255L910 290L900 218Z" fill="#957cf6" stroke="#957cf6"></path><path d="M900 332L910 290L900 297Z" fill="#957cf6" stroke="#957cf6"></path><path d="M900 467L900 434L819 481Z" fill="#ffffff" stroke="#ffffff"></path><path d="M900 332L900 434L910 290Z" fill="#ffffff" stroke="#ffffff"></path><path d="M866 525L819 481L825 509Z" fill="#ffffff" stroke="#ffffff"></path><path d="M773 600L866 525L825 509Z" fill="#f3eefe" stroke="#f3eefe"></path><path d="M-12 417L0 490L0 398Z" fill="#dbcdfc" stroke="#dbcdfc"></path><path d="M866 525L900 467L819 481Z" fill="#e7ddfd" stroke="#e7ddfd"></path><path d="M900 434L908 484L910 290Z" fill="#846cf4" stroke="#846cf4"></path><path d="M-12 417L0 520L0 490Z" fill="#957cf6" stroke="#957cf6"></path><path d="M0 490L17 553L133 548Z" fill="#c1acfa" stroke="#c1acfa"></path><path d="M0 520L17 553L0 490Z" fill="#957cf6" stroke="#957cf6"></path><path d="M133 0L58 0L110 18Z" fill="#715df2" stroke="#715df2"></path><path d="M110 18L58 0L90 55Z" fill="#dbcdfc" stroke="#dbcdfc"></path><path d="M194 -5L58 0L133 0Z" fill="#e7ddfd" stroke="#e7ddfd"></path><path d="M866 525L908 484L900 467Z" fill="#715df2" stroke="#715df2"></path><path d="M900 467L908 484L900 434Z" fill="#846cf4" stroke="#846cf4"></path><path d="M913 137L837 191L847 203Z" fill="#dbcdfc" stroke="#dbcdfc"></path><path d="M913 137L847 203L900 218Z" fill="#ffffff" stroke="#ffffff"></path><path d="M908 484L913 137L910 290Z" fill="#a48cf7" stroke="#a48cf7"></path><path d="M910 290L913 137L900 218Z" fill="#cebcfb" stroke="#cebcfb"></path><path d="M913 137L900 98L900 113Z" fill="#957cf6" stroke="#957cf6"></path><path d="M900 113L900 98L790 73Z" fill="#cebcfb" stroke="#cebcfb"></path><path d="M0 37L0 53L90 55Z" fill="#846cf4" stroke="#846cf4"></path><path d="M0 198L0 53L-12 417Z" fill="#ffffff" stroke="#ffffff"></path><path d="M194 -5L27 0L58 0Z" fill="#957cf6" stroke="#957cf6"></path><path d="M58 0L0 37L90 55Z" fill="#f3eefe" stroke="#f3eefe"></path><path d="M27 0L0 37L58 0Z" fill="#ffffff" stroke="#ffffff"></path><path d="M0 53L0 37L-12 417Z" fill="#e7ddfd" stroke="#e7ddfd"></path><path d="M-12 417L0 600L0 520Z" fill="#715df2" stroke="#715df2"></path><path d="M0 520L0 600L17 553Z" fill="#a48cf7" stroke="#a48cf7"></path><path d="M17 553L0 600L111 600Z" fill="#c1acfa" stroke="#c1acfa"></path><path d="M111 600L0 600L719 609Z" fill="#e7ddfd" stroke="#e7ddfd"></path><path d="M892 600L900 574L866 525Z" fill="#957cf6" stroke="#957cf6"></path><path d="M866 525L900 574L908 484Z" fill="#e7ddfd" stroke="#e7ddfd"></path><path d="M876 0L796 19L790 73Z" fill="#f3eefe" stroke="#f3eefe"></path><path d="M796 19L861 -10L755 0Z" fill="#b39cf9" stroke="#b39cf9"></path><path d="M755 0L861 -10L684 0Z" fill="#c1acfa" stroke="#c1acfa"></path><path d="M486 -3L861 -10L194 -5Z" fill="#b39cf9" stroke="#b39cf9"></path><path d="M719 609L892 600L773 600Z" fill="#ffffff" stroke="#ffffff"></path><path d="M773 600L892 600L866 525Z" fill="#715df2" stroke="#715df2"></path><path d="M900 0L876 0L900 98Z" fill="#ffffff" stroke="#ffffff"></path><path d="M900 98L876 0L790 73Z" fill="#715df2" stroke="#715df2"></path><path d="M194 -5L0 0L27 0Z" fill="#957cf6" stroke="#957cf6"></path><path d="M27 0L0 0L0 37Z" fill="#e7ddfd" stroke="#e7ddfd"></path><path d="M0 37L0 0L-12 417Z" fill="#715df2" stroke="#715df2"></path><path d="M719 609L900 600L892 600Z" fill="#846cf4" stroke="#846cf4"></path><path d="M892 600L900 600L900 574Z" fill="#846cf4" stroke="#846cf4"></path><path d="M900 574L900 600L908 484Z" fill="#f3eefe" stroke="#f3eefe"></path><path d="M913 137L900 0L900 98Z" fill="#f3eefe" stroke="#f3eefe"></path><path d="M876 0L900 0L861 -10Z" fill="#dbcdfc" stroke="#dbcdfc"></path></g></svg>